<svg id="Capa_1" data-name="Capa 1" xmlns="http://www.w3.org/2000/svg" viewBox="0 0 92 143"><defs><style>.cls-1{fill:#00c1d0;stroke:#00c7d0;stroke-miterlimit:10;}.cls-2{fill:#fff;}.cls-3{fill:#ff8bf3;}</style></defs><title>Gotita</title><text x="-84.5" y="-2.5"/><path class="cls-1" d="M107.07,138.5a48,48,0,0,0,32.53,5.77c5.52-.94,22.26-3.78,31.19-18.74,8.18-13.72,4.8-29.27,2.71-38.91-2.95-13.56-7.29-16.79-19-38.92C138.27,17,135.66,2.37,130.11,3c-5.89.69-4,17.3-17.62,41.8-2.16,3.89-4.93,7.88-4.93,7.88-2,3.22-3.63,5.58-4.06,6.22-3.77,5.64-6.78,9.7-7.28,10.4C79,93.17,86.73,115.44,86.73,115.44,91.25,129.17,102.84,136,107.07,138.5Z" transform="translate(-84.5 -2.5)"/><ellipse cx="27.92" cy="81.02" rx="10.04" ry="10.06"/><ellipse class="cls-2" cx="26.81" cy="77.66" rx="4.46" ry="4.47"/><ellipse cx="68.08" cy="81.02" rx="10.04" ry="10.06"/><ellipse class="cls-2" cx="66.96" cy="77.66" rx="4.46" ry="4.47"/><path d="M122.34,97.61A20.31,20.31,0,0,0,133,99.17c5.7-.84,8.76-4.27,10.69-3.12,1.56.92,1.22,4.14,0,6.25-2.64,4.57-9.86,4.69-10.69,4.69-.64,0-8.62-.06-10.69-4.69A6.25,6.25,0,0,1,122.34,97.61Z" transform="translate(-84.5 -2.5)"/><path class="cls-3" d="M128.1,105.73c-.69-1.47,1.67-4.79,3.4-4.68,1.1.07,1.69,1.52,2.62,1.27s.73-1.43,1.49-1.8c1.41-.7,4.82,1.85,4.53,3.5C139.68,106.7,129.27,108.22,128.1,105.73Z" transform="translate(-84.5 -2.5)"/><path class="cls-2" d="M144.77,129.35c.66-4,7.27-3.51,13.38-8.94,7.52-6.68,7-15.88,8.93-15.65s4.65,11.17,0,20.12c-3.67,7.05-12.2,13.53-17.85,11.18C146.68,135,144.34,132,144.77,129.35Z" transform="translate(-84.5 -2.5)"/></svg>